<?xml version="1.0" encoding="utf-8"?>
<!-- Generator: Adobe Illustrator 16.0.0, SVG Export Plug-In . SVG Version: 6.00 Build 0)  -->
<!DOCTYPE svg PUBLIC "-//W3C//DTD SVG 1.1//EN" "http://www.w3.org/Graphics/SVG/1.1/DTD/svg11.dtd">
<svg version="1.1" id="Layer_1" xmlns="http://www.w3.org/2000/svg" xmlns:xlink="http://www.w3.org/1999/xlink" x="0px" y="0px"
	 width="777.693px" height="135.365px" viewBox="0 0 777.693 135.365" enable-background="new 0 0 777.693 135.365"
	 xml:space="preserve">
<g>
	<path fill="#D30F1E" d="M47.941,94.318l-28.279-28.28c-12.779-12.783-12.779-33.577,0-46.353
		c6.192-6.191,14.424-9.602,23.173-9.602c8.753,0,16.981,3.411,23.173,9.602l8.727,8.723l8.719-8.723
		c6.191-6.191,14.42-9.602,23.173-9.602c8.75,0,16.981,3.411,23.173,9.602c12.776,12.776,12.776,33.57,0.003,46.353l-7.099,7.099
		l7.132,7.125l7.095-7.098c16.708-16.708,16.708-43.898-0.003-60.612C128.833,4.466,118.07,0,106.627,0
		c-11.45,0-22.213,4.466-30.306,12.553l-1.59,1.591l-1.59-1.591C65.044,4.466,54.286,0,42.835,0C31.393,0,20.63,4.466,12.533,12.553
		c-16.711,16.714-16.711,43.905,0,60.612l28.275,28.277L47.941,94.318z"/>
	<polygon fill="#009E47" points="115.6,80.235 74.731,121.101 55.046,101.424 47.914,108.555 74.731,135.365 122.729,87.368 	"/>
	<g>
		<path fill="#D30F1E" d="M227.824,96.774h-13.155V73.062h-24.118v23.713h-13.114V38.551h13.114v23.225h24.118V38.551h13.155V96.774
			z"/>
		<path fill="#D30F1E" d="M276.058,96.774H241.14V38.551h33.578v10.679h-20.462v12.951h19.042v10.639h-19.042v13.316h21.802V96.774z
			"/>
		<path fill="#D30F1E" d="M337.001,96.774h-14.292l-4.142-12.951h-20.706l-4.102,12.951h-14.21l21.194-58.224h15.55L337.001,96.774z
			 M315.563,73.754l-6.253-19.571c-0.46-1.46-0.785-3.206-0.974-5.236h-0.325c-0.135,1.706-0.474,3.396-1.015,5.074l-6.334,19.734
			H315.563z"/>
		<path fill="#D30F1E" d="M378.942,96.774h-34.674V38.551h13.115v47.585h21.559V96.774z"/>
		<path fill="#D30F1E" d="M423.079,49.229h-16.604v47.545h-13.156V49.229h-16.527V38.551h46.288V49.229z"/>
		<path fill="#D30F1E" d="M481.3,96.774h-13.151V73.062h-24.118v23.713h-13.114V38.551h13.114v23.225h24.118V38.551H481.3V96.774z"
			/>
		<path fill="#009E47" d="M559.296,94.704c-4.25,2.058-9.796,3.086-16.646,3.086c-8.932,0-15.955-2.626-21.07-7.877
			c-5.115-5.252-7.674-12.248-7.674-20.992c0-9.311,2.87-16.862,8.619-22.655c5.753-5.793,13.224-8.688,22.4-8.688
			c5.685,0,10.476,0.718,14.371,2.151v12.628c-3.896-2.328-8.336-3.493-13.316-3.493c-5.466,0-9.881,1.72-13.236,5.156
			c-3.355,3.438-5.035,8.093-5.035,13.969c0,5.628,1.587,10.124,4.752,13.466c3.166,3.343,7.429,5.006,12.789,5.006
			c5.116,0,9.797-1.245,14.047-3.735V94.704z"/>
		<path fill="#009E47" d="M619.835,96.774h-13.156V73.062h-24.117v23.713h-13.114V38.551h13.114v23.225h24.117V38.551h13.156V96.774
			z"/>
		<path fill="#009E47" d="M668.071,96.774h-34.919V38.551h33.577v10.679h-20.463v12.951h19.044v10.639h-19.044v13.316h21.805V96.774
			z"/>
		<path fill="#009E47" d="M719.147,94.704c-4.251,2.058-9.801,3.086-16.647,3.086c-8.931,0-15.954-2.626-21.07-7.877
			c-5.119-5.252-7.677-12.248-7.677-20.992c0-9.311,2.87-16.862,8.623-22.655c5.753-5.793,13.224-8.688,22.399-8.688
			c5.682,0,10.472,0.718,14.372,2.151v12.628c-3.9-2.328-8.336-3.493-13.317-3.493c-5.47,0-9.881,1.72-13.236,5.156
			c-3.355,3.438-5.035,8.093-5.035,13.969c0,5.628,1.583,10.124,4.753,13.466c3.165,3.343,7.429,5.006,12.789,5.006
			c5.115,0,9.796-1.245,14.047-3.735V94.704z"/>
		<path fill="#009E47" d="M777.693,96.774h-16.566L744.16,71.479c-0.325-0.487-0.841-1.556-1.545-3.208h-0.203v28.503h-13.114
			V38.551h13.114v27.528h0.203c0.324-0.757,0.865-1.84,1.625-3.248l16.076-24.28h15.635l-20.303,27.773L777.693,96.774z"/>
	</g>
</g>
</svg>
