<?xml version="1.0" encoding="utf-8"?>
<!-- Generator: Adobe Illustrator 16.0.0, SVG Export Plug-In . SVG Version: 6.00 Build 0)  -->
<!DOCTYPE svg PUBLIC "-//W3C//DTD SVG 1.1//EN" "http://www.w3.org/Graphics/SVG/1.1/DTD/svg11.dtd">
<svg version="1.1" id="Layer_1" xmlns="http://www.w3.org/2000/svg" xmlns:xlink="http://www.w3.org/1999/xlink" x="0px" y="0px"
	 width="362.014px" height="327.866px" viewBox="0 0 362.014 327.866" enable-background="new 0 0 362.014 327.866"
	 xml:space="preserve">
<g>
	<path fill="#D30F1E" d="M116.115,228.436l-68.493-68.489c-30.953-30.953-30.953-81.319,0-112.262
		c15.001-15.009,34.938-23.262,56.131-23.262c21.201,0,41.13,8.252,56.12,23.262l21.141,21.119l21.123-21.119
		c14.994-15.009,34.916-23.262,56.123-23.262c21.2,0,41.144,8.252,56.131,23.262c30.942,30.942,30.942,81.309,0.021,112.262
		l-17.203,17.194l17.267,17.261l17.184-17.194c40.474-40.473,40.474-106.321,0-146.808C312.054,10.819,285.976,0,258.259,0
		c-27.73,0-53.809,10.819-73.405,30.399l-3.848,3.861l-3.852-3.861C157.554,10.819,131.483,0,103.752,0
		C76.034,0,49.966,10.819,30.357,30.399c-40.476,40.487-40.476,106.335,0,146.808l68.482,68.489L116.115,228.436z"/>
	<polygon fill="#009E47" points="279.989,194.334 181.006,293.31 133.326,245.65 116.05,262.922 181.006,327.866 297.25,211.605 	
		"/>
</g>
</svg>
