<?xml version="1.0" encoding="utf-8"?>
<!-- Generator: Adobe Illustrator 16.0.0, SVG Export Plug-In . SVG Version: 6.00 Build 0)  -->
<!DOCTYPE svg PUBLIC "-//W3C//DTD SVG 1.1//EN" "http://www.w3.org/Graphics/SVG/1.1/DTD/svg11.dtd">
<svg version="1.1" id="Layer_1" xmlns="http://www.w3.org/2000/svg" xmlns:xlink="http://www.w3.org/1999/xlink" x="0px" y="0px"
	 width="534.927px" height="327.866px" viewBox="0 0 534.927 327.866" enable-background="new 0 0 534.927 327.866"
	 xml:space="preserve">
<g>
	<g>
		<path fill="#D30F1E" d="M221.24,162.72l-48.789-48.786c-22.049-22.048-22.049-57.926,0-79.967
			c10.686-10.691,24.887-16.57,39.983-16.57c15.102,0,29.298,5.878,39.976,16.57l15.059,15.043l15.047-15.043
			c10.681-10.691,24.871-16.57,39.978-16.57c15.102,0,29.308,5.878,39.983,16.57c22.041,22.041,22.041,57.918,0.016,79.967
			l-12.255,12.248l12.3,12.295l12.24-12.248c28.83-28.83,28.83-75.735,0-104.575C360.812,7.707,342.236,0,322.493,0
			c-19.753,0-38.329,7.707-52.288,21.654l-2.741,2.75l-2.743-2.75C250.758,7.707,232.187,0,212.434,0
			c-19.745,0-38.313,7.707-52.281,21.654c-28.832,28.84-28.832,75.745,0,104.575l48.781,48.787L221.24,162.72z"/>
		<polygon fill="#009E47" points="337.971,138.429 267.463,208.932 233.5,174.982 221.194,187.285 267.463,233.547 350.267,150.731 
					"/>
	</g>
	<g>
		<path fill="#D30F1E" d="M44.907,326.956H33.18v-21.123H11.697v21.123H0v-51.882h11.697v20.696H33.18v-20.696h11.727V326.956z"/>
		<path fill="#D30F1E" d="M87.892,326.956H56.774v-51.882h29.923v9.515H68.461v11.544h16.972v9.481H68.461v11.86h19.431V326.956z"/>
		<path fill="#D30F1E" d="M142.203,326.956h-12.738l-3.688-11.538h-18.458l-3.656,11.538H91l18.888-51.882h13.859L142.203,326.956z
			 M123.093,306.443l-5.571-17.43c-0.408-1.314-0.694-2.861-0.865-4.676h-0.292c-0.124,1.523-0.422,3.024-0.905,4.522l-5.642,17.583
			H123.093z"/>
		<path fill="#D30F1E" d="M179.572,326.956h-30.895v-51.882h11.685v42.4h19.21V326.956z"/>
		<path fill="#D30F1E" d="M218.906,284.589h-14.797v42.367h-11.725v-42.367h-14.729v-9.515h41.25V284.589z"/>
		<path fill="#D30F1E" d="M270.792,326.956h-11.722v-21.123h-21.495v21.123h-11.688v-51.882h11.688v20.696h21.495v-20.696h11.722
			V326.956z"/>
		<path fill="#009E47" d="M340.305,325.107c-3.797,1.849-8.735,2.759-14.845,2.759c-7.956,0-14.222-2.339-18.783-7.015
			c-4.556-4.685-6.828-10.915-6.828-18.72c0-8.288,2.554-15.021,7.684-20.188c5.124-5.159,11.777-7.739,19.954-7.739
			c5.059,0,9.333,0.645,12.818,1.919v11.254c-3.485-2.079-7.442-3.103-11.878-3.103c-4.868,0-8.806,1.523-11.793,4.586
			c-2.986,3.073-4.49,7.217-4.49,12.449c0,5.014,1.408,9.021,4.239,11.996c2.821,2.975,6.618,4.458,11.39,4.458
			c4.566,0,8.735-1.104,12.532-3.321V325.107z"/>
		<path fill="#009E47" d="M394.238,326.956h-11.722v-21.123h-21.493v21.123h-11.682v-51.882h11.682v20.696h21.493v-20.696h11.722
			V326.956z"/>
		<path fill="#009E47" d="M437.229,326.956h-31.108v-51.882h29.911v9.515h-18.234v11.544h16.962v9.481h-16.962v11.86h19.432V326.956
			z"/>
		<path fill="#009E47" d="M482.749,325.107c-3.791,1.849-8.725,2.759-14.834,2.759c-7.966,0-14.222-2.339-18.772-7.015
			c-4.562-4.685-6.85-10.915-6.85-18.72c0-8.288,2.56-15.021,7.704-20.188c5.114-5.159,11.757-7.739,19.949-7.739
			c5.063,0,9.318,0.645,12.803,1.919v11.254c-3.484-2.079-7.438-3.103-11.867-3.103c-4.873,0-8.806,1.523-11.788,4.586
			c-3.002,3.073-4.485,7.217-4.485,12.449c0,5.014,1.403,9.021,4.225,11.996c2.826,2.975,6.612,4.458,11.399,4.458
			c4.552,0,8.726-1.104,12.517-3.321V325.107z"/>
		<path fill="#009E47" d="M534.927,326.956h-14.77l-15.127-22.534c-0.291-0.427-0.744-1.388-1.372-2.863h-0.177v25.397h-11.691
			v-51.882h11.691v24.543h0.177c0.291-0.679,0.774-1.654,1.453-2.904l14.316-21.639h13.935l-18.093,24.752L534.927,326.956z"/>
	</g>
</g>
</svg>
